<svg width="540" height="185" viewBox="0 0 540 185" fill="none" xmlns="http://www.w3.org/2000/svg">
<rect x="0.5" y="0.5" width="539" height="184" rx="4.5" fill="#FCFCFC" stroke="#F6F7FB"/>
<mask id="mask0_34_250" style="mask-type:alpha" maskUnits="userSpaceOnUse" x="0" y="0" width="540" height="185">
<rect x="0.5" y="0.5" width="539" height="184" rx="4.5" fill="#FCFCFC" stroke="#F6F7FB"/>
</mask>
<g mask="url(#mask0_34_250)">
<path d="M451.445 253.723V286.358L412.186 324.23C412.036 324.377 411.917 324.552 411.836 324.745C411.755 324.939 411.713 325.146 411.713 325.356V403.737H414.536V326.042L453.803 288.161C453.951 288.013 454.069 287.838 454.149 287.645C454.228 287.451 454.269 287.244 454.268 287.035V252.997C454.269 252.773 454.222 252.552 454.131 252.348C454.039 252.144 453.905 251.962 453.737 251.814L412.643 216.462V113.663L495.615 64.9233C495.842 64.7864 496.03 64.5923 496.159 64.3604C496.287 64.1285 496.353 63.8668 496.349 63.6016V32.5986H545.415C545.797 32.5705 546.154 32.3989 546.415 32.1182C546.676 31.8374 546.821 31.4684 546.821 31.0852C546.821 30.702 546.676 30.3329 546.415 30.0522C546.154 29.7715 545.797 29.5999 545.415 29.5718H494.938C494.55 29.5867 494.183 29.7547 493.919 30.0391C493.654 30.3235 493.513 30.7011 493.526 31.0893V62.7041L410.554 111.444C410.329 111.584 410.143 111.78 410.016 112.013C409.888 112.246 409.824 112.508 409.828 112.774V217.205C409.826 217.428 409.871 217.649 409.961 217.853C410.051 218.057 410.184 218.24 410.35 218.388L451.445 253.723Z" fill="#F9F9F9"/>
<path d="M439.224 204.894H491.813C492.196 204.866 492.553 204.694 492.814 204.413C493.075 204.132 493.22 203.763 493.22 203.38C493.22 202.997 493.075 202.628 492.814 202.347C492.553 202.066 492.196 201.895 491.813 201.867H440.635V137.764C440.635 137.39 440.486 137.031 440.222 136.766C439.957 136.501 439.598 136.353 439.224 136.353C438.849 136.353 438.49 136.501 438.226 136.766C437.961 137.031 437.812 137.39 437.812 137.764V203.392C437.801 203.778 437.943 204.153 438.208 204.434C438.472 204.716 438.838 204.881 439.224 204.894Z" fill="#F9F9F9"/>
<path d="M411.232 114.308C411.424 114.301 411.613 114.257 411.788 114.178C411.962 114.099 412.12 113.986 412.251 113.845C412.382 113.705 412.484 113.541 412.551 113.361C412.619 113.181 412.65 112.99 412.644 112.798V50.7923C412.65 50.6005 412.619 50.4093 412.551 50.2296C412.484 50.0499 412.382 49.8852 412.251 49.745C412.12 49.6049 411.962 49.4919 411.788 49.4126C411.613 49.3333 411.424 49.2893 411.232 49.2829H374.633V-51.7948C374.648 -51.9886 374.623 -52.1834 374.559 -52.3669C374.495 -52.5505 374.393 -52.7188 374.261 -52.8614C374.129 -53.004 373.969 -53.1177 373.791 -53.1955C373.613 -53.2733 373.42 -53.3135 373.226 -53.3135C373.032 -53.3135 372.839 -53.2733 372.661 -53.1955C372.483 -53.1177 372.323 -53.004 372.191 -52.8614C372.059 -52.7188 371.957 -52.5505 371.893 -52.3669C371.829 -52.1834 371.804 -51.9886 371.819 -51.7948V50.7597C371.811 50.9521 371.841 51.1443 371.908 51.3249C371.975 51.5055 372.077 51.6711 372.208 51.8122C372.34 51.9532 372.497 52.0669 372.673 52.1467C372.848 52.2265 373.037 52.2709 373.23 52.2772H409.829V112.798C409.816 113.184 409.956 113.56 410.219 113.843C410.482 114.126 410.846 114.293 411.232 114.308Z" fill="#F9F9F9"/>
<path d="M425.118 78.7523C425.303 78.7505 425.486 78.7117 425.656 78.6381L464.132 61.5865C464.488 61.416 464.766 61.1158 464.909 60.7473C465.051 60.3789 465.048 59.9699 464.899 59.6039C464.837 59.4253 464.739 59.2613 464.611 59.1222C464.482 58.9831 464.327 58.8718 464.154 58.7953C463.981 58.7187 463.794 58.6786 463.605 58.6773C463.416 58.6761 463.229 58.7138 463.055 58.788L426.529 74.9422V39.4194C426.542 39.0312 426.401 38.6536 426.137 38.3692C425.872 38.0848 425.506 37.9167 425.118 37.9019H388.519C388.136 37.9299 387.779 38.1016 387.518 38.3823C387.257 38.6631 387.112 39.0321 387.112 39.4153C387.112 39.7985 387.257 40.1676 387.518 40.4483C387.779 40.729 388.136 40.9007 388.519 40.9287H423.706V77.2429C423.705 77.487 423.761 77.7281 423.87 77.9464C423.979 78.1647 424.138 78.3542 424.335 78.4993C424.564 78.6614 424.837 78.7497 425.118 78.7523Z" fill="#F9F9F9"/>
<path d="M461.554 55.549C462.143 55.2993 462.778 55.1737 463.418 55.1799C464.058 55.1861 464.69 55.324 465.275 55.585C465.86 55.8459 466.384 56.2243 466.816 56.6968C467.248 57.1692 467.579 57.7255 467.787 58.3311C468.281 59.5654 468.289 60.9413 467.809 62.1813C467.329 63.4213 466.397 64.4333 465.2 65.0131C464.611 65.2641 463.977 65.3911 463.337 65.386C462.697 65.381 462.065 65.244 461.48 64.9837C460.895 64.7234 460.37 64.3454 459.938 63.8731C459.505 63.4009 459.175 62.8447 458.967 62.2391C458.471 61.0038 458.461 59.626 458.941 58.3841C459.421 57.1422 460.355 56.1289 461.554 55.549Z" fill="#F9F9F9"/>
<path d="M321.162 114.308H352.703V403.736H355.526V112.798C355.534 112.606 355.503 112.414 355.436 112.233C355.369 112.052 355.267 111.887 355.136 111.746C355.005 111.605 354.847 111.491 354.672 111.411C354.496 111.331 354.307 111.287 354.114 111.281H322.574V4.94078C322.574 4.56644 322.425 4.20741 322.16 3.94271C321.896 3.67801 321.537 3.5293 321.162 3.5293C320.788 3.5293 320.429 3.67801 320.164 3.94271C319.9 4.20741 319.751 4.56644 319.751 4.94078V112.798C319.744 112.99 319.776 113.181 319.843 113.361C319.91 113.541 320.013 113.705 320.144 113.846C320.275 113.986 320.432 114.099 320.607 114.178C320.782 114.257 320.97 114.301 321.162 114.308Z" fill="#F9F9F9"/>
<path d="M316.381 5.20206C316.445 4.27105 316.779 3.37889 317.343 2.63524C317.907 1.8916 318.675 1.32886 319.555 1.01616C320.434 0.703458 321.385 0.654412 322.292 0.875086C323.199 1.09576 324.021 1.57652 324.658 2.25828C325.295 2.94005 325.72 3.79312 325.879 4.71266C326.037 5.63219 325.924 6.57814 325.553 7.43424C325.182 8.29033 324.568 9.01928 323.788 9.53152C323.008 10.0437 322.096 10.3169 321.162 10.3175C319.851 10.2707 318.611 9.7061 317.715 8.74732C316.819 7.78854 316.34 6.51373 316.381 5.20206Z" fill="#F9F9F9"/>
<path d="M333.278 403.737V156.953C333.278 156.579 333.129 156.22 332.864 155.955C332.6 155.691 332.241 155.542 331.867 155.542C331.492 155.542 331.133 155.691 330.868 155.955C330.604 156.22 330.455 156.579 330.455 156.953V403.737H333.278Z" fill="#F9F9F9"/>
<path d="M327.109 157.206C327.176 156.277 327.512 155.389 328.077 154.649C328.641 153.909 329.41 153.35 330.287 153.04C331.165 152.73 332.114 152.684 333.018 152.906C333.922 153.128 334.742 153.609 335.376 154.29C336.01 154.971 336.432 155.822 336.59 156.74C336.747 157.657 336.633 158.601 336.262 159.454C335.891 160.308 335.279 161.035 334.501 161.545C333.723 162.056 332.813 162.329 331.882 162.33C330.57 162.281 329.332 161.714 328.437 160.754C327.543 159.793 327.065 158.518 327.109 157.206Z" fill="#F9F9F9"/>
<path d="M380.189 248.029V403.737H383.012V247.449C383.01 247.081 382.883 246.725 382.653 246.438L367.087 227.958V73.9798C367.087 73.6055 366.938 73.2464 366.673 72.9817C366.408 72.717 366.049 72.5684 365.675 72.5684C365.301 72.5684 364.942 72.717 364.677 72.9817C364.412 73.2464 364.264 73.6055 364.264 73.9798V228.538C364.262 228.908 364.392 229.266 364.631 229.549L380.189 248.029Z" fill="#F9F9F9"/>
<path d="M360.927 74.2322C360.994 73.3038 361.33 72.4151 361.894 71.6751C362.459 70.935 363.227 70.3759 364.105 70.0662C364.983 69.7566 365.932 69.7099 366.836 69.9319C367.74 70.154 368.559 70.635 369.194 71.3161C369.828 71.9972 370.25 72.8487 370.408 73.7661C370.565 74.6835 370.451 75.6269 370.08 76.4805C369.709 77.3342 369.097 78.061 368.319 78.5718C367.541 79.0825 366.63 79.355 365.7 79.3558C364.387 79.309 363.147 78.7431 362.252 77.7822C361.357 76.8214 360.881 75.5445 360.927 74.2322Z" fill="#F9F9F9"/>
<path d="M427.508 257.19C427.718 257.19 427.925 257.142 428.113 257.048C428.302 256.955 428.466 256.819 428.593 256.652C428.837 256.338 428.954 255.944 428.92 255.548C428.887 255.152 428.706 254.783 428.413 254.514L390.697 220.77V73.4572C390.711 73.2633 390.686 73.0686 390.622 72.885C390.558 72.7015 390.457 72.5332 390.325 72.3906C390.192 72.248 390.032 72.1342 389.854 72.0564C389.676 71.9787 389.484 71.9385 389.289 71.9385C389.095 71.9385 388.903 71.9787 388.725 72.0564C388.546 72.1342 388.386 72.248 388.254 72.3906C388.122 72.5332 388.021 72.7015 387.957 72.885C387.893 73.0686 387.867 73.2633 387.882 73.4572V221.472C387.879 221.691 387.923 221.908 388.01 222.109C388.097 222.31 388.226 222.491 388.388 222.638L426.643 256.88C426.885 257.083 427.192 257.193 427.508 257.19Z" fill="#F9F9F9"/>
<path d="M334.917 97.1259C335.109 97.1186 335.298 97.0735 335.472 96.9932C335.647 96.9129 335.803 96.7991 335.934 96.6581C336.064 96.5172 336.165 96.3519 336.232 96.1718C336.298 95.9917 336.328 95.8002 336.321 95.6084V52.2777H351.006C351.394 52.2628 351.761 52.0948 352.025 51.8104C352.29 51.526 352.431 51.1484 352.418 50.7602V-32.8825C352.418 -33.2568 352.269 -33.6158 352.004 -33.8805C351.739 -34.1452 351.38 -34.2939 351.006 -34.2939C350.632 -34.2939 350.273 -34.1452 350.008 -33.8805C349.743 -33.6158 349.595 -33.2568 349.595 -32.8825V49.2508H334.909C334.718 49.2572 334.529 49.3012 334.354 49.3805C334.179 49.4598 334.022 49.5728 333.891 49.713C333.76 49.8531 333.658 50.0178 333.59 50.1975C333.523 50.3772 333.491 50.5684 333.498 50.7602V95.6329C333.489 96.0188 333.634 96.3926 333.9 96.6724C334.166 96.9522 334.532 97.1152 334.917 97.1259Z" fill="#F9F9F9"/>
<path d="M251.619 124.898H272.888V265.602C272.886 265.828 272.933 266.052 273.026 266.257C273.119 266.463 273.256 266.646 273.427 266.793L310.336 298.106V403.737H313.159V297.38C313.161 297.154 313.114 296.931 313.021 296.725C312.928 296.519 312.791 296.336 312.62 296.189L275.711 264.868V123.388C275.724 123 275.583 122.623 275.319 122.338C275.054 122.054 274.688 121.886 274.3 121.871H253.03V-62.3845C253.03 -62.7588 252.882 -63.1178 252.617 -63.3825C252.352 -63.6472 251.993 -63.7959 251.619 -63.7959C251.245 -63.7959 250.886 -63.6472 250.621 -63.3825C250.356 -63.1178 250.208 -62.7588 250.208 -62.3845V123.388C250.197 123.775 250.339 124.151 250.603 124.433C250.867 124.716 251.232 124.883 251.619 124.898Z" fill="#F9F9F9"/>
<path d="M290.764 229.72C290.956 229.714 291.144 229.67 291.319 229.59C291.494 229.511 291.651 229.398 291.782 229.258C291.913 229.118 292.016 228.953 292.083 228.774C292.15 228.594 292.182 228.403 292.175 228.211V137.764C292.19 137.57 292.165 137.375 292.1 137.192C292.036 137.008 291.935 136.84 291.803 136.697C291.671 136.555 291.511 136.441 291.333 136.363C291.155 136.285 290.962 136.245 290.768 136.245C290.573 136.245 290.381 136.285 290.203 136.363C290.025 136.441 289.865 136.555 289.733 136.697C289.601 136.84 289.499 137.008 289.435 137.192C289.371 137.375 289.346 137.57 289.361 137.764V228.211C289.347 228.597 289.488 228.972 289.751 229.255C290.014 229.538 290.378 229.705 290.764 229.72Z" fill="#F9F9F9"/>
<path d="M307.235 262.257C307.428 262.251 307.617 262.206 307.792 262.126C307.968 262.047 308.125 261.933 308.257 261.792C308.388 261.651 308.49 261.485 308.557 261.305C308.624 261.124 308.654 260.932 308.647 260.739V129.434C308.65 129.203 308.601 128.975 308.503 128.766C308.406 128.557 308.262 128.372 308.084 128.226L275.711 102.118V52.9135L308.247 17.0154C308.508 16.7245 308.651 16.3459 308.647 15.9548V-60.443C308.647 -60.8174 308.498 -61.1764 308.233 -61.4411C307.968 -61.7058 307.609 -61.8545 307.235 -61.8545C306.861 -61.8545 306.502 -61.7058 306.237 -61.4411C305.972 -61.1764 305.824 -60.8174 305.824 -60.443V15.3836L273.288 51.2818C273.027 51.5734 272.885 51.9515 272.888 52.3424V102.926C272.885 103.157 272.934 103.385 273.031 103.594C273.129 103.803 273.272 103.988 273.451 104.134L305.824 130.241V260.78C305.821 261.161 305.967 261.529 306.231 261.804C306.494 262.08 306.854 262.242 307.235 262.257Z" fill="#F9F9F9"/>
<path d="M454.766 193.096C454.34 193.568 453.819 193.946 453.238 194.204C452.657 194.462 452.028 194.596 451.392 194.596C450.756 194.596 450.127 194.462 449.546 194.204C448.965 193.946 448.445 193.568 448.019 193.096C447.117 192.105 446.618 190.813 446.618 189.474C446.618 188.134 447.117 186.842 448.019 185.851C448.445 185.379 448.965 185.002 449.546 184.743C450.127 184.485 450.756 184.352 451.392 184.352C452.028 184.352 452.657 184.485 453.238 184.743C453.819 185.002 454.34 185.379 454.766 185.851C455.664 186.844 456.161 188.135 456.161 189.474C456.161 190.812 455.664 192.103 454.766 193.096Z" fill="#F9F9F9"/>
<path d="M284.604 132.656C284.69 131.457 285.124 130.308 285.853 129.352C286.583 128.395 287.575 127.673 288.71 127.273C289.844 126.873 291.07 126.812 292.238 127.099C293.406 127.386 294.465 128.008 295.285 128.889C296.104 129.769 296.649 130.87 296.852 132.055C297.055 133.241 296.907 134.46 296.427 135.562C295.947 136.665 295.155 137.604 294.149 138.263C293.143 138.922 291.966 139.273 290.764 139.273C289.071 139.207 287.474 138.474 286.32 137.235C285.166 135.995 284.549 134.349 284.604 132.656ZM287.419 132.656C287.465 133.308 287.7 133.932 288.096 134.451C288.491 134.971 289.03 135.364 289.646 135.581C290.262 135.799 290.928 135.832 291.562 135.677C292.196 135.521 292.771 135.184 293.217 134.706C293.662 134.228 293.958 133.631 294.068 132.987C294.179 132.343 294.099 131.681 293.838 131.082C293.578 130.483 293.148 129.974 292.602 129.616C292.056 129.257 291.417 129.067 290.764 129.067C289.845 129.101 288.976 129.498 288.349 130.17C287.723 130.843 287.388 131.737 287.419 132.656Z" fill="#F9F9F9"/>
<path d="M328.742 100.715C328.826 99.5155 329.259 98.3664 329.987 97.409C330.715 96.4516 331.707 95.7277 332.84 95.3261C333.974 94.9245 335.2 94.8627 336.369 95.1483C337.537 95.4339 338.597 96.0544 339.417 96.9337C340.238 97.813 340.784 98.9129 340.989 100.098C341.193 101.283 341.047 102.503 340.568 103.606C340.089 104.709 339.299 105.649 338.294 106.309C337.288 106.97 336.112 107.322 334.909 107.324C333.216 107.262 331.617 106.532 330.461 105.294C329.305 104.055 328.687 102.409 328.742 100.715ZM331.556 100.715C331.602 101.367 331.838 101.99 332.233 102.509C332.628 103.029 333.166 103.422 333.782 103.64C334.397 103.857 335.063 103.891 335.697 103.736C336.331 103.581 336.906 103.245 337.352 102.768C337.797 102.291 338.094 101.694 338.205 101.051C338.316 100.408 338.238 99.7458 337.978 99.1468C337.719 98.5477 337.291 98.0374 336.745 97.6783C336.2 97.3193 335.562 97.1272 334.909 97.1256C333.99 97.1596 333.122 97.5565 332.495 98.2293C331.868 98.9022 331.534 99.7962 331.565 100.715H331.556Z" fill="#F9F9F9"/>
<path d="M377.603 39.4195C377.687 38.2193 378.12 37.0698 378.848 36.1123C379.577 35.1548 380.569 34.4309 381.703 34.0295C382.838 33.6282 384.064 33.5669 385.233 33.8531C386.401 34.1394 387.461 34.7607 388.281 35.6408C389.102 36.5209 389.647 37.6214 389.851 38.8072C390.054 39.993 389.907 41.2125 389.427 42.3157C388.947 43.419 388.155 44.358 387.149 45.0175C386.142 45.677 384.966 46.0281 383.762 46.0279C382.071 45.962 380.475 45.2304 379.321 43.9925C378.168 42.7546 377.55 41.1109 377.603 39.4195ZM380.417 39.4195C380.464 40.071 380.699 40.6948 381.095 41.2144C381.49 41.734 382.029 42.1267 382.645 42.3444C383.261 42.562 383.926 42.5951 384.561 42.4396C385.195 42.284 385.77 41.9466 386.215 41.4688C386.661 40.991 386.957 40.3935 387.067 39.7498C387.177 39.1061 387.098 38.4442 386.837 37.8453C386.576 37.2464 386.147 36.7366 385.601 36.3785C385.054 36.0205 384.415 35.8297 383.762 35.8297C382.843 35.8637 381.975 36.2606 381.348 36.9335C380.721 37.6063 380.387 38.5003 380.417 39.4195Z" fill="#F9F9F9"/>
<path d="M383.118 68.3582C383.201 67.1559 383.633 66.0039 384.361 65.0439C385.09 64.0839 386.083 63.3577 387.219 62.9545C388.354 62.5513 389.583 62.4887 390.754 62.7745C391.925 63.0602 392.986 63.6817 393.809 64.5628C394.631 65.4438 395.178 66.5459 395.382 67.7336C395.587 68.9212 395.44 70.1427 394.959 71.248C394.479 72.3532 393.686 73.294 392.678 73.9546C391.67 74.6153 390.491 74.9671 389.286 74.9667C387.594 74.9008 385.997 74.1694 384.842 72.9318C383.687 71.6941 383.067 70.0504 383.118 68.3582ZM385.941 68.3582C385.987 69.0097 386.222 69.6335 386.618 70.1531C387.014 70.6727 387.553 71.0655 388.168 71.2831C388.784 71.5008 389.45 71.5339 390.084 71.3783C390.719 71.2228 391.294 70.8854 391.739 70.4075C392.184 69.9297 392.48 69.3323 392.591 68.6886C392.701 68.0449 392.621 67.3829 392.361 66.784C392.1 66.1851 391.67 65.6753 391.124 65.3172C390.578 64.9592 389.939 64.7684 389.286 64.7684C388.368 64.8045 387.501 65.2021 386.874 65.8745C386.248 66.5468 385.912 67.4396 385.941 68.3582Z" fill="#F9F9F9"/>
<path d="M433.056 132.657C433.14 131.455 433.574 130.304 434.303 129.345C435.033 128.386 436.026 127.661 437.162 127.259C438.298 126.857 439.526 126.796 440.696 127.082C441.866 127.369 442.927 127.991 443.749 128.872C444.57 129.753 445.116 130.855 445.32 132.043C445.524 133.23 445.377 134.451 444.896 135.556C444.415 136.661 443.623 137.601 442.615 138.262C441.607 138.922 440.429 139.274 439.224 139.273C437.53 139.21 435.93 138.478 434.775 137.238C433.619 135.998 433.001 134.351 433.056 132.657ZM435.879 132.657C435.925 133.308 436.16 133.932 436.556 134.452C436.952 134.971 437.491 135.364 438.106 135.582C438.722 135.799 439.388 135.832 440.022 135.677C440.657 135.521 441.232 135.184 441.677 134.706C442.122 134.228 442.418 133.631 442.529 132.987C442.639 132.343 442.559 131.681 442.299 131.083C442.038 130.484 441.608 129.974 441.062 129.616C440.516 129.258 439.877 129.067 439.224 129.067C438.305 129.101 437.437 129.498 436.81 130.171C436.183 130.844 435.848 131.737 435.879 132.657Z" fill="#F9F9F9"/>
<path d="M498.749 74.2162C498.833 73.0144 499.266 71.8634 499.996 70.9045C500.725 69.9456 501.719 69.2207 502.854 68.8187C503.99 68.4168 505.218 68.3553 506.389 68.6418C507.559 68.9284 508.62 69.5505 509.441 70.4318C510.263 71.313 510.809 72.415 511.013 73.6025C511.216 74.7899 511.069 76.011 510.588 77.1157C510.108 78.2205 509.315 79.1608 508.307 79.8212C507.3 80.4816 506.121 80.8332 504.916 80.8329C503.223 80.7691 501.623 80.0373 500.467 78.7974C499.311 77.5575 498.693 75.9104 498.749 74.2162ZM501.571 74.2162C501.617 74.8677 501.853 75.4916 502.248 76.0112C502.644 76.5308 503.183 76.9236 503.799 77.1412C504.414 77.3589 505.08 77.392 505.715 77.2364C506.349 77.0809 506.924 76.7435 507.369 76.2656C507.815 75.7878 508.111 75.1904 508.221 74.5466C508.332 73.9029 508.252 73.241 507.991 72.6421C507.731 72.0432 507.301 71.5334 506.755 71.1753C506.208 70.8172 505.569 70.6265 504.916 70.6264C503.998 70.6626 503.131 71.0601 502.505 71.7325C501.878 72.4049 501.543 73.2976 501.571 74.2162Z" fill="#F9F9F9"/>
<path d="M36.21 123.079H71.9361V146.208C71.9339 146.473 72.0004 146.734 72.129 146.966C72.2577 147.198 72.4442 147.392 72.6704 147.53L135.385 184.383V261.833L104.382 288.504C104.215 288.65 104.08 288.83 103.989 289.033C103.897 289.236 103.851 289.456 103.852 289.679V315.468C103.85 315.678 103.891 315.886 103.973 316.08C104.054 316.274 104.174 316.449 104.325 316.594L133.949 345.149V403.737H136.772V344.505C136.774 344.295 136.733 344.087 136.651 343.893C136.57 343.699 136.45 343.525 136.299 343.379L106.675 314.824V290.405L137.677 263.742C137.843 263.593 137.975 263.41 138.065 263.206C138.155 263.003 138.201 262.782 138.199 262.559V183.453C138.203 183.187 138.138 182.926 138.011 182.693C137.884 182.46 137.699 182.263 137.473 182.123L74.7997 145.311V121.569C74.813 121.181 74.6718 120.804 74.4073 120.519C74.1428 120.235 73.7764 120.067 73.3883 120.052H36.21C35.8278 120.08 35.4704 120.252 35.2095 120.532C34.9487 120.813 34.8037 121.182 34.8037 121.565C34.8037 121.948 34.9487 122.317 35.2095 122.598C35.4704 122.879 35.8278 123.051 36.21 123.079Z" fill="#F9F9F9"/>
<path d="M36.4545 126.717C35.4266 126.789 34.4009 126.55 33.5107 126.031C32.6206 125.512 31.9072 124.737 31.4637 123.807C31.0201 122.877 30.8668 121.835 31.0237 120.816C31.1806 119.798 31.6405 118.85 32.3434 118.097C33.0463 117.343 33.9598 116.819 34.9649 116.592C35.97 116.365 37.0202 116.446 37.9787 116.824C38.9372 117.202 39.7597 117.86 40.3391 118.712C40.9185 119.564 41.228 120.571 41.2272 121.601C41.2713 122.912 40.7935 124.187 39.8987 125.146C39.0039 126.105 37.7653 126.67 36.4545 126.717Z" fill="#F9F9F9"/>
<path d="M136.756 184.994C136.95 184.987 137.14 184.941 137.316 184.859C137.492 184.777 137.65 184.661 137.781 184.518C137.911 184.374 138.012 184.206 138.077 184.023C138.142 183.84 138.17 183.646 138.159 183.452V138.008H165.571C165.763 138.002 165.952 137.958 166.127 137.879C166.301 137.799 166.459 137.686 166.59 137.546C166.721 137.406 166.823 137.241 166.891 137.062C166.958 136.882 166.989 136.691 166.983 136.499V59.9953C166.998 59.8014 166.972 59.6066 166.908 59.4231C166.844 59.2396 166.743 59.0712 166.611 58.9287C166.479 58.7861 166.318 58.6723 166.14 58.5945C165.962 58.5167 165.77 58.4766 165.575 58.4766C165.381 58.4766 165.189 58.5167 165.011 58.5945C164.833 58.6723 164.672 58.7861 164.54 58.9287C164.408 59.0712 164.307 59.2396 164.243 59.4231C164.179 59.6066 164.153 59.8014 164.168 59.9953V134.982H136.756C136.563 134.988 136.374 135.032 136.198 135.112C136.023 135.192 135.865 135.306 135.734 135.447C135.603 135.588 135.501 135.753 135.434 135.934C135.367 136.114 135.336 136.307 135.344 136.499V183.452C135.333 183.647 135.361 183.841 135.427 184.025C135.492 184.208 135.593 184.377 135.725 184.521C135.856 184.664 136.015 184.78 136.192 184.862C136.369 184.943 136.561 184.988 136.756 184.994Z" fill="#F9F9F9"/>
<path d="M160.766 60.2567C160.832 59.3282 161.169 58.4395 161.733 57.6995C162.298 56.9594 163.066 56.4003 163.944 56.0906C164.822 55.781 165.771 55.7343 166.675 55.9564C167.579 56.1784 168.398 56.6595 169.033 57.3406C169.667 58.0217 170.089 58.8731 170.246 59.7905C170.404 60.7079 170.29 61.6513 169.919 62.505C169.548 63.3586 168.936 64.0855 168.158 64.5962C167.38 65.107 166.469 65.3795 165.539 65.3803C164.226 65.3335 162.986 64.7675 162.091 63.8067C161.196 62.8459 160.72 61.5689 160.766 60.2567Z" fill="#F9F9F9"/>
<path d="M126.239 158.063C126.531 158.07 126.818 157.981 127.055 157.81C127.251 157.665 127.411 157.476 127.52 157.257C127.629 157.039 127.685 156.797 127.683 156.553V129.418H153.986C154.368 129.389 154.725 129.218 154.986 128.937C155.247 128.656 155.392 128.287 155.392 127.904C155.392 127.521 155.247 127.152 154.986 126.871C154.725 126.59 154.368 126.419 153.986 126.391H126.247C126.055 126.397 125.866 126.441 125.692 126.52C125.517 126.6 125.359 126.713 125.228 126.853C125.097 126.993 124.995 127.158 124.928 127.337C124.86 127.517 124.829 127.708 124.836 127.9V154.293L98.6712 142.659C98.4972 142.585 98.3099 142.547 98.1208 142.548C97.9317 142.55 97.7449 142.59 97.5719 142.666C97.399 142.743 97.2436 142.854 97.1155 142.993C96.9875 143.132 96.8894 143.296 96.8273 143.475C96.6809 143.84 96.6786 144.247 96.821 144.613C96.9634 144.98 97.2398 145.279 97.5942 145.449L125.725 157.916C125.883 158.002 126.059 158.052 126.239 158.063Z" fill="#F9F9F9"/>
<path d="M96.5013 148.917C95.3055 148.334 94.3743 147.321 93.8946 146.08C93.4149 144.839 93.4222 143.463 93.915 142.227C94.1227 141.622 94.453 141.065 94.8853 140.593C95.3176 140.121 95.8425 139.743 96.4274 139.483C97.0123 139.222 97.6445 139.085 98.2847 139.08C98.9249 139.075 99.5592 139.202 100.148 139.453C101.346 140.031 102.279 141.043 102.76 142.284C103.24 143.524 103.231 144.901 102.734 146.135C102.526 146.741 102.196 147.297 101.764 147.769C101.332 148.242 100.807 148.62 100.223 148.881C99.6379 149.142 99.0059 149.28 98.3657 149.286C97.7255 149.292 97.0909 149.167 96.5013 148.917Z" fill="#F9F9F9"/>
<path d="M181.432 403.737V184.995H204.985C205.177 184.984 205.365 184.936 205.538 184.853C205.712 184.77 205.867 184.653 205.995 184.51C206.123 184.367 206.221 184.199 206.285 184.018C206.348 183.837 206.375 183.644 206.364 183.453V102.967C206.379 102.774 206.353 102.579 206.289 102.395C206.225 102.212 206.124 102.043 205.992 101.901C205.86 101.758 205.7 101.644 205.522 101.567C205.343 101.489 205.151 101.449 204.957 101.449C204.762 101.449 204.57 101.489 204.392 101.567C204.214 101.644 204.054 101.758 203.922 101.901C203.789 102.043 203.688 102.212 203.624 102.395C203.56 102.579 203.535 102.774 203.549 102.967V181.968H180.02C179.64 181.985 179.282 182.149 179.021 182.427C178.76 182.704 178.618 183.072 178.625 183.453V403.737H181.432Z" fill="#F9F9F9"/>
<path d="M200.204 103.228C200.267 102.297 200.601 101.405 201.165 100.662C201.729 99.918 202.498 99.3552 203.377 99.0425C204.256 98.7298 205.207 98.6808 206.114 98.9015C207.021 99.1221 207.843 99.6029 208.48 100.285C209.118 100.966 209.542 101.82 209.701 102.739C209.86 103.659 209.746 104.604 209.375 105.461C209.004 106.317 208.39 107.046 207.61 107.558C206.83 108.07 205.918 108.343 204.985 108.344C203.673 108.297 202.434 107.732 201.538 106.774C200.641 105.815 200.162 104.54 200.204 103.228Z" fill="#F9F9F9"/>
<path d="M160.611 403.736V286.064L172.294 272.194C172.524 271.907 172.651 271.551 172.653 271.183V155.329C172.653 154.955 172.504 154.596 172.239 154.331C171.975 154.067 171.616 153.918 171.241 153.918C170.867 153.918 170.508 154.067 170.243 154.331C169.979 154.596 169.83 154.955 169.83 155.329V270.571L158.147 284.44C157.917 284.727 157.79 285.084 157.788 285.452V403.753L160.611 403.736Z" fill="#F9F9F9"/>
<path d="M166.469 155.517C166.529 154.589 166.859 153.698 167.418 152.954C167.978 152.21 168.742 151.646 169.617 151.33C170.492 151.014 171.441 150.961 172.346 151.176C173.251 151.392 174.074 151.866 174.713 152.543C175.353 153.219 175.781 154.067 175.945 154.983C176.11 155.899 176.003 156.843 175.639 157.699C175.275 158.555 174.668 159.287 173.894 159.803C173.121 160.32 172.213 160.6 171.282 160.608C169.969 160.57 168.725 160.012 167.823 159.058C166.921 158.103 166.433 156.83 166.469 155.517Z" fill="#F9F9F9"/>
<path d="M125.268 292.469C125.603 292.467 125.925 292.342 126.174 292.118L154.28 266.965C154.44 266.818 154.569 266.639 154.656 266.439C154.743 266.239 154.787 266.024 154.786 265.806V153.69C154.786 153.315 154.637 152.956 154.372 152.692C154.108 152.427 153.749 152.278 153.374 152.278C153 152.278 152.641 152.427 152.376 152.692C152.112 152.956 151.963 153.315 151.963 153.69V265.096L124.363 289.801C124.082 290.075 123.909 290.441 123.876 290.832C123.843 291.223 123.952 291.613 124.183 291.93C124.31 292.098 124.474 292.233 124.663 292.327C124.851 292.42 125.058 292.469 125.268 292.469Z" fill="#F9F9F9"/>
<path d="M194.559 171.982C194.751 171.975 194.941 171.931 195.116 171.851C195.291 171.771 195.449 171.658 195.58 171.517C195.711 171.376 195.813 171.21 195.88 171.029C195.947 170.849 195.978 170.657 195.97 170.464V136.5C195.978 136.307 195.947 136.115 195.88 135.934C195.813 135.754 195.711 135.588 195.58 135.447C195.449 135.306 195.291 135.192 195.116 135.113C194.941 135.033 194.751 134.988 194.559 134.982H183.789V74.3224C183.804 74.1286 183.779 73.9338 183.715 73.7502C183.651 73.5667 183.549 73.3984 183.417 73.2558C183.285 73.1132 183.125 72.9995 182.947 72.9217C182.769 72.8439 182.576 72.8037 182.382 72.8037C182.188 72.8037 181.995 72.8439 181.817 72.9217C181.639 72.9995 181.479 73.1132 181.347 73.2558C181.215 73.3984 181.114 73.5667 181.049 73.7502C180.985 73.9338 180.96 74.1286 180.975 74.3224V136.5C180.962 136.886 181.102 137.261 181.365 137.544C181.628 137.827 181.992 137.994 182.378 138.009H193.155V170.464C193.148 170.656 193.178 170.847 193.244 171.027C193.311 171.208 193.412 171.373 193.542 171.514C193.673 171.655 193.83 171.769 194.004 171.849C194.178 171.929 194.367 171.974 194.559 171.982Z" fill="#F9F9F9"/>
<path d="M177.605 74.5754C177.67 73.6465 178.005 72.7568 178.569 72.0156C179.133 71.2744 179.901 70.714 180.778 70.4032C181.656 70.0923 182.605 70.0446 183.51 70.2658C184.414 70.487 185.235 70.9675 185.87 71.6483C186.505 72.3292 186.928 73.1807 187.086 74.0984C187.244 75.0161 187.13 75.9599 186.76 76.8141C186.389 77.6682 185.777 78.3955 184.998 78.9065C184.22 79.4176 183.309 79.6902 182.378 79.6909C181.068 79.6419 179.83 79.0764 178.936 78.1178C178.042 77.1593 177.563 75.8857 177.605 74.5754Z" fill="#F9F9F9"/>
<path d="M215.526 295.879C215.912 295.875 216.28 295.718 216.551 295.443C216.821 295.167 216.972 294.796 216.97 294.41V196.849L241.356 177.195C241.534 177.049 241.677 176.864 241.775 176.655C241.872 176.446 241.922 176.218 241.919 175.987V137.642C241.923 137.253 241.781 136.877 241.519 136.589L216.97 109.527V52.2611C216.97 51.8868 216.821 51.5277 216.556 51.263C216.292 50.9983 215.933 50.8496 215.558 50.8496C215.184 50.8496 214.825 50.9983 214.56 51.263C214.296 51.5277 214.147 51.8868 214.147 52.2611V110.139C214.146 110.527 214.288 110.902 214.547 111.191L239.096 138.253V175.229L214.677 194.875C214.5 195.022 214.358 195.207 214.261 195.415C214.164 195.624 214.114 195.852 214.114 196.082V294.41C214.114 294.79 214.261 295.155 214.524 295.429C214.787 295.703 215.146 295.864 215.526 295.879Z" fill="#F9F9F9"/>
<path d="M210.517 48.3775C210.585 47.4007 210.937 46.4651 211.53 45.6857C212.123 44.9064 212.93 44.3172 213.853 43.9905C214.777 43.6639 215.775 43.614 216.726 43.8471C217.677 44.0801 218.539 44.586 219.207 45.3024C219.874 46.0188 220.318 46.9146 220.483 47.8798C220.649 48.845 220.529 49.8374 220.138 50.7352C219.746 51.6329 219.102 52.3969 218.282 52.9332C217.463 53.4696 216.505 53.7549 215.526 53.7541C214.149 53.7031 212.849 53.1085 211.91 52.1007C210.972 51.093 210.47 49.7541 210.517 48.3775ZM213.331 48.3775C213.36 48.8061 213.513 49.217 213.772 49.5596C214.032 49.9022 214.385 50.1615 214.79 50.3057C215.194 50.4499 215.632 50.4726 216.05 50.3711C216.467 50.2695 216.846 50.0482 217.139 49.7343C217.432 49.4204 217.627 49.0276 217.7 48.6042C217.773 48.1809 217.72 47.7455 217.549 47.3516C217.378 46.9577 217.095 46.6226 216.735 46.3874C216.376 46.1522 215.955 46.0272 215.526 46.0278C214.924 46.0512 214.356 46.3112 213.945 46.7512C213.534 47.1912 213.314 47.7757 213.331 48.3775Z" fill="#F9F9F9"/>
<path d="M269.772 32.7292C270.16 32.7144 270.526 32.5463 270.791 32.2619C271.055 31.9775 271.197 31.5999 271.183 31.2117V-36.1218C271.183 -36.4961 271.035 -36.8551 270.77 -37.1198C270.505 -37.3845 270.146 -37.5332 269.772 -37.5332C269.398 -37.5332 269.039 -37.3845 268.774 -37.1198C268.509 -36.8551 268.361 -36.4961 268.361 -36.1218V31.2117C268.353 31.4042 268.383 31.5963 268.45 31.7769C268.517 31.9576 268.619 32.1232 268.75 32.2643C268.882 32.4053 269.039 32.519 269.215 32.5988C269.39 32.6786 269.579 32.7229 269.772 32.7292Z" fill="#F9F9F9"/>
<path d="M274.545 30.9586C274.478 31.887 274.142 32.7758 273.577 33.5158C273.012 34.2559 272.244 34.815 271.366 35.1246C270.489 35.4343 269.54 35.4809 268.636 35.2589C267.732 35.0369 266.912 34.5558 266.278 33.8747C265.643 33.1936 265.221 32.3422 265.064 31.4248C264.907 30.5074 265.02 29.5639 265.391 28.7103C265.762 27.8566 266.374 27.1298 267.153 26.619C267.931 26.1082 268.841 25.8358 269.772 25.835C271.084 25.8817 272.324 26.4478 273.219 27.4086C274.114 28.3694 274.591 29.6463 274.545 30.9586Z" fill="#F9F9F9"/>
<path d="M498.74 13.7929H561.561C561.943 13.7648 562.3 13.5932 562.561 13.3125C562.822 13.0317 562.967 12.6627 562.967 12.2795C562.967 11.8963 562.822 11.5273 562.561 11.2465C562.3 10.9658 561.943 10.7942 561.561 10.7661H498.74C498.358 10.7942 498.001 10.9658 497.74 11.2465C497.479 11.5273 497.334 11.8963 497.334 12.2795C497.334 12.6627 497.479 13.0317 497.74 13.3125C498.001 13.5932 498.358 13.7648 498.74 13.7929Z" fill="#F9F9F9"/>
<path d="M490.125 12.2838C490.193 11.307 490.546 10.3714 491.138 9.59201C491.731 8.81263 492.539 8.22339 493.462 7.89674C494.385 7.57009 495.383 7.52026 496.335 7.75332C497.286 7.98639 498.148 8.49223 498.815 9.20868C499.483 9.92512 499.926 10.8209 500.092 11.7861C500.257 12.7513 500.137 13.7437 499.746 14.6415C499.355 15.5392 498.71 16.3032 497.891 16.8395C497.072 17.3759 496.113 17.6611 495.134 17.6603C493.758 17.6093 492.458 17.0148 491.519 16.007C490.58 14.9993 490.079 13.6604 490.125 12.2838ZM492.948 12.2838C492.978 12.7103 493.132 13.1187 493.391 13.4588C493.65 13.7989 494.003 14.0559 494.406 14.1983C494.81 14.3406 495.246 14.3621 495.661 14.26C496.076 14.158 496.452 13.9369 496.744 13.6239C497.035 13.3109 497.228 12.9196 497.3 12.4981C497.372 12.0766 497.32 11.6433 497.149 11.2514C496.978 10.8595 496.696 10.526 496.338 10.292C495.98 10.058 495.562 9.93359 495.134 9.93411C494.533 9.95749 493.966 10.2177 493.556 10.658C493.147 11.0983 492.928 11.6827 492.948 12.2838Z" fill="#F9F9F9"/>
<path d="M257.501 305.4C257.693 305.394 257.881 305.35 258.056 305.27C258.231 305.191 258.388 305.078 258.519 304.938C258.651 304.798 258.753 304.633 258.82 304.454C258.888 304.274 258.919 304.083 258.912 303.891V151.25C258.912 150.876 258.764 150.517 258.499 150.252C258.234 149.988 257.875 149.839 257.501 149.839C257.127 149.839 256.768 149.988 256.503 150.252C256.238 150.517 256.089 150.876 256.089 151.25V303.891C256.078 304.278 256.221 304.653 256.485 304.936C256.749 305.218 257.114 305.385 257.501 305.4Z" fill="#F9F9F9"/>
<path d="M252.492 147.383C252.561 146.406 252.913 145.47 253.506 144.691C254.098 143.912 254.906 143.323 255.829 142.996C256.752 142.669 257.751 142.619 258.702 142.852C259.653 143.085 260.515 143.591 261.183 144.308C261.85 145.024 262.294 145.92 262.459 146.885C262.624 147.85 262.504 148.843 262.113 149.741C261.722 150.638 261.077 151.402 260.258 151.939C259.439 152.475 258.481 152.76 257.502 152.759C256.125 152.708 254.825 152.114 253.886 151.106C252.947 150.098 252.446 148.76 252.492 147.383ZM255.315 147.383C255.345 147.809 255.499 148.218 255.758 148.558C256.018 148.898 256.37 149.155 256.774 149.297C257.177 149.44 257.613 149.461 258.028 149.359C258.443 149.257 258.82 149.036 259.111 148.723C259.402 148.41 259.596 148.019 259.668 147.597C259.74 147.176 259.687 146.742 259.516 146.35C259.345 145.959 259.063 145.625 258.705 145.391C258.348 145.157 257.929 145.033 257.502 145.033C256.901 145.057 256.333 145.317 255.924 145.757C255.514 146.197 255.295 146.782 255.315 147.383Z" fill="#F9F9F9"/>
<path d="M467.29 150.818C467.479 150.816 467.665 150.775 467.838 150.698C468.011 150.621 468.166 150.509 468.293 150.369L512.626 102.682C512.884 102.385 513.025 102.006 513.025 101.613C513.025 101.22 512.884 100.841 512.626 100.544C512.501 100.403 512.347 100.29 512.175 100.213C512.002 100.136 511.816 100.096 511.627 100.096C511.438 100.096 511.251 100.136 511.079 100.213C510.907 100.29 510.753 100.403 510.627 100.544L466.294 148.215C466.027 148.507 465.879 148.888 465.879 149.284C465.879 149.68 466.027 150.061 466.294 150.353C466.418 150.496 466.571 150.611 466.742 150.691C466.914 150.772 467.1 150.815 467.29 150.818Z" fill="#F9F9F9"/>
<path d="M470.838 152.751C470.413 153.224 469.893 153.603 469.311 153.862C468.73 154.121 468.101 154.255 467.465 154.255C466.828 154.255 466.199 154.121 465.618 153.862C465.037 153.603 464.517 153.224 464.091 152.751C463.189 151.762 462.688 150.472 462.688 149.133C462.688 147.794 463.189 146.503 464.091 145.514C464.517 145.041 465.037 144.663 465.618 144.404C466.199 144.145 466.828 144.011 467.465 144.011C468.101 144.011 468.73 144.145 469.311 144.404C469.893 144.663 470.413 145.041 470.838 145.514C471.737 146.505 472.235 147.795 472.235 149.133C472.235 150.471 471.737 151.76 470.838 152.751Z" fill="#F9F9F9"/>
<path d="M510.627 102.681C509.686 101.639 509.164 100.284 509.164 98.8795C509.164 97.4747 509.686 96.1198 510.627 95.0776C511.077 94.5844 511.623 94.1899 512.233 93.9189C512.842 93.6478 513.501 93.5062 514.168 93.5029C514.835 93.5047 515.494 93.6448 516.103 93.9145C516.713 94.1841 517.26 94.5774 517.709 95.0694C518.656 96.1091 519.181 97.4649 519.181 98.8714C519.181 100.278 518.656 101.634 517.709 102.673C517.261 103.168 516.715 103.565 516.105 103.837C515.496 104.11 514.836 104.252 514.168 104.256C513.501 104.252 512.843 104.11 512.233 103.839C511.624 103.568 511.077 103.174 510.627 102.681ZM514.168 96.5298C513.877 96.5309 513.588 96.5923 513.322 96.7102C513.055 96.8282 512.815 97.0001 512.618 97.2151C512.198 97.6677 511.965 98.2623 511.965 98.8795C511.965 99.4968 512.198 100.091 512.618 100.544C512.814 100.759 513.052 100.931 513.317 101.049C513.583 101.167 513.87 101.228 514.16 101.229C514.453 101.228 514.741 101.165 515.008 101.046C515.275 100.926 515.514 100.753 515.71 100.536C516.116 100.089 516.343 99.5078 516.347 98.904C516.345 98.2982 516.115 97.7153 515.702 97.2722C515.506 97.056 515.267 96.8833 515 96.7653C514.733 96.6472 514.444 96.5865 514.152 96.5869L514.168 96.5298Z" fill="#F9F9F9"/>
<path d="M401.474 19.1778C401.663 19.1778 401.851 19.1378 402.023 19.0605C402.196 18.9832 402.351 18.8702 402.477 18.729L446.811 -28.9421C447.068 -29.2388 447.209 -29.6183 447.209 -30.0109C447.209 -30.4035 447.068 -30.783 446.811 -31.0797C446.684 -31.2184 446.529 -31.3292 446.357 -31.405C446.185 -31.4809 445.999 -31.52 445.811 -31.52C445.623 -31.52 445.437 -31.4809 445.265 -31.405C445.093 -31.3292 444.939 -31.2184 444.812 -31.0797L400.478 16.5915C400.219 16.8887 400.076 17.2698 400.076 17.6643C400.076 18.0588 400.219 18.44 400.478 18.7372C400.605 18.8751 400.759 18.9854 400.93 19.0612C401.101 19.137 401.287 19.1767 401.474 19.1778Z" fill="#F9F9F9"/>
<path d="M405.024 21.0952C404.598 21.5673 404.077 21.9447 403.496 22.2031C402.915 22.4614 402.286 22.5949 401.65 22.5949C401.014 22.5949 400.385 22.4614 399.804 22.2031C399.223 21.9447 398.703 21.5673 398.277 21.0952C397.377 20.1031 396.879 18.8119 396.879 17.4727C396.879 16.1336 397.377 14.8423 398.277 13.8503C398.703 13.3781 399.223 13.0007 399.804 12.7424C400.385 12.4841 401.014 12.3506 401.65 12.3506C402.286 12.3506 402.915 12.4841 403.496 12.7424C404.077 13.0007 404.598 13.3781 405.024 13.8503C405.925 14.8415 406.424 16.1331 406.424 17.4727C406.424 18.8124 405.925 20.104 405.024 21.0952Z" fill="#F9F9F9"/>
<path d="M93.1154 84.9939C93.5021 84.979 93.8672 84.8122 94.1315 84.5295C94.3958 84.2469 94.5379 83.8713 94.5269 83.4845V16.1429C94.5269 15.7685 94.3782 15.4096 94.1135 15.1449C93.8488 14.8802 93.4898 14.7314 93.1154 14.7314C92.7411 14.7314 92.382 14.8802 92.1173 15.1449C91.8526 15.4096 91.704 15.7685 91.704 16.1429V83.4845C91.6974 83.6764 91.7287 83.8676 91.7961 84.0473C91.8636 84.227 91.9657 84.3916 92.0968 84.5318C92.2279 84.672 92.3854 84.785 92.5601 84.8643C92.7349 84.9436 92.9236 84.9876 93.1154 84.9939Z" fill="#F9F9F9"/>
<path d="M97.8557 83.2234C97.7905 84.1523 97.4555 85.042 96.8918 85.7831C96.3281 86.5243 95.5603 87.0847 94.6825 87.3955C93.8048 87.7064 92.8554 87.7542 91.9509 87.533C91.0464 87.3118 90.2261 86.8313 89.5909 86.1504C88.9557 85.4696 88.5331 84.618 88.375 83.7004C88.217 82.7827 88.3304 81.8388 88.7012 80.9847C89.0721 80.1306 89.6843 79.4033 90.4627 78.8923C91.2411 78.3812 92.1518 78.1086 93.083 78.1079C94.393 78.1568 95.6304 78.7224 96.5247 79.6809C97.4191 80.6395 97.8976 81.9131 97.8557 83.2234Z" fill="#F9F9F9"/>
<path d="M88.0652 12.2838C88.1335 11.3073 88.4855 10.372 89.078 9.59281C89.6704 8.81359 90.4775 8.22435 91.4002 7.89744C92.3228 7.57053 93.3208 7.52018 94.2717 7.75258C95.2225 7.98499 96.0848 8.49005 96.7527 9.20569C97.4205 9.92134 97.8649 10.8164 98.0311 11.7811C98.1974 12.7457 98.0783 13.7379 97.6885 14.6359C97.2987 15.5338 96.6552 16.2983 95.837 16.8356C95.0188 17.3729 94.0615 17.6595 93.0826 17.6603C91.7055 17.6093 90.4046 17.0151 89.4644 16.0075C88.5241 15 88.0211 13.6612 88.0652 12.2838ZM90.888 12.2838C90.9182 12.71 91.0721 13.1181 91.3308 13.458C91.5896 13.798 91.9419 14.055 92.3446 14.1976C92.7473 14.3402 93.1829 14.3622 93.598 14.2608C94.013 14.1594 94.3893 13.939 94.681 13.6268C94.9726 13.3146 95.1667 12.9241 95.2396 12.5031C95.3125 12.0821 95.2609 11.649 95.0912 11.257C94.9215 10.8649 94.641 10.5309 94.2842 10.2959C93.9274 10.0609 93.5098 9.93518 93.0826 9.93412C92.486 9.96376 91.925 10.2267 91.5206 10.6663C91.1161 11.1058 90.9006 11.6868 90.9206 12.2838H90.888Z" fill="#F9F9F9"/>
<path d="M192.495 7.64111C192.686 7.63376 192.875 7.58862 193.049 7.50835C193.224 7.42809 193.38 7.31422 193.511 7.17327C193.641 7.03233 193.742 6.86708 193.809 6.68696C193.875 6.50684 193.905 6.31543 193.898 6.12361V-61.2098C193.913 -61.4037 193.887 -61.5985 193.823 -61.782C193.759 -61.9655 193.658 -62.1339 193.526 -62.2765C193.394 -62.419 193.233 -62.5328 193.055 -62.6106C192.877 -62.6884 192.685 -62.7285 192.491 -62.7285C192.296 -62.7285 192.104 -62.6884 191.926 -62.6106C191.748 -62.5328 191.587 -62.419 191.455 -62.2765C191.323 -62.1339 191.222 -61.9655 191.158 -61.782C191.094 -61.5985 191.068 -61.4037 191.083 -61.2098V6.12361C191.076 6.31609 191.106 6.50817 191.173 6.6888C191.24 6.86944 191.342 7.03506 191.473 7.17611C191.604 7.31716 191.762 7.43084 191.937 7.51064C192.113 7.59045 192.302 7.6348 192.495 7.64111Z" fill="#F9F9F9"/>
<path d="M197.275 5.87073C197.208 6.79915 196.872 7.68789 196.308 8.42793C195.743 9.16797 194.975 9.72712 194.097 10.0368C193.219 10.3464 192.27 10.393 191.366 10.171C190.462 9.94897 189.643 9.4679 189.008 8.78681C188.374 8.10572 187.952 7.25427 187.795 6.33687C187.637 5.41948 187.751 4.47604 188.122 3.62237C188.493 2.7687 189.105 2.04188 189.883 1.53112C190.661 1.02036 191.572 0.747876 192.502 0.74707C193.815 0.793847 195.055 1.35988 195.95 2.32069C196.845 3.2815 197.321 4.55845 197.275 5.87073Z" fill="#F9F9F9"/>
<path d="M181.26 42.7075C181.46 42.7074 181.657 42.6627 181.838 42.5766C182.019 42.4905 182.178 42.3652 182.304 42.2099C182.548 41.9015 182.672 41.5155 182.654 41.1228C182.636 40.7301 182.477 40.357 182.206 40.0723L135.621 -5.06143C135.488 -5.1947 135.329 -5.29849 135.153 -5.36599C134.978 -5.43349 134.79 -5.46319 134.602 -5.45318C134.414 -5.44317 134.231 -5.39365 134.063 -5.30788C133.896 -5.2221 133.748 -5.10199 133.63 -4.95537C133.386 -4.64705 133.262 -4.26104 133.28 -3.86831C133.298 -3.47558 133.457 -3.10253 133.728 -2.8178L180.313 42.3078C180.437 42.4338 180.584 42.5341 180.746 42.6027C180.909 42.6713 181.083 42.707 181.26 42.7075Z" fill="#F9F9F9"/>
<path d="M184.278 37.2249C185.226 38.1724 185.785 39.4388 185.849 40.777C185.912 42.1152 185.474 43.4289 184.621 44.4616C184.221 44.956 183.721 45.3608 183.154 45.6498C182.588 45.9388 181.967 46.1056 181.331 46.1394C180.696 46.1733 180.061 46.0734 179.467 45.8462C178.873 45.619 178.333 45.2696 177.882 44.8206C176.937 43.8736 176.379 42.6087 176.316 41.2725C176.252 39.9362 176.689 38.6242 177.54 37.592C177.94 37.0982 178.44 36.6938 179.006 36.4048C179.572 36.1157 180.193 35.9486 180.828 35.914C181.462 35.8794 182.098 35.9782 182.692 36.204C183.286 36.4298 183.827 36.7775 184.278 37.2249Z" fill="#F9F9F9"/>
<path d="M189.549 174.331C189.617 173.354 189.969 172.419 190.562 171.639C191.155 170.86 191.962 170.271 192.885 169.944C193.809 169.617 194.807 169.568 195.758 169.801C196.709 170.034 197.571 170.54 198.239 171.256C198.906 171.972 199.35 172.868 199.515 173.833C199.681 174.799 199.561 175.791 199.17 176.689C198.779 177.587 198.134 178.351 197.314 178.887C196.495 179.423 195.537 179.708 194.558 179.708C193.182 179.655 191.883 179.059 190.945 178.052C190.006 177.045 189.504 175.707 189.549 174.331ZM192.371 174.331C192.402 174.758 192.556 175.166 192.815 175.506C193.074 175.846 193.427 176.103 193.83 176.246C194.233 176.388 194.669 176.409 195.084 176.307C195.5 176.205 195.876 175.984 196.167 175.671C196.458 175.358 196.652 174.967 196.724 174.545C196.796 174.124 196.743 173.691 196.572 173.299C196.401 172.907 196.12 172.573 195.762 172.339C195.404 172.105 194.985 171.981 194.558 171.981C193.957 172.005 193.39 172.265 192.98 172.705C192.57 173.146 192.352 173.73 192.371 174.331Z" fill="#F9F9F9"/>
<path d="M152.517 127.9C152.586 126.924 152.938 125.989 153.53 125.21C154.123 124.43 154.93 123.841 155.852 123.514C156.775 123.187 157.773 123.137 158.724 123.369C159.675 123.602 160.537 124.107 161.205 124.822C161.873 125.538 162.317 126.433 162.483 127.398C162.65 128.362 162.531 129.355 162.141 130.253C161.751 131.15 161.107 131.915 160.289 132.452C159.471 132.99 158.514 133.276 157.535 133.277C156.158 133.226 154.857 132.632 153.917 131.624C152.976 130.617 152.473 129.278 152.517 127.9ZM155.34 127.9C155.37 128.327 155.524 128.735 155.783 129.075C156.042 129.415 156.394 129.672 156.797 129.814C157.2 129.957 157.635 129.979 158.05 129.877C158.465 129.776 158.842 129.556 159.133 129.244C159.425 128.931 159.619 128.541 159.692 128.12C159.765 127.699 159.713 127.266 159.543 126.874C159.374 126.482 159.093 126.148 158.736 125.913C158.38 125.678 157.962 125.552 157.535 125.551C156.937 125.578 156.374 125.84 155.967 126.28C155.561 126.72 155.345 127.302 155.365 127.9H155.34Z" fill="#F9F9F9"/>
<path d="M148.364 149.822C148.433 148.846 148.785 147.91 149.378 147.131C149.971 146.351 150.778 145.762 151.701 145.435C152.624 145.109 153.623 145.059 154.574 145.292C155.525 145.525 156.387 146.031 157.055 146.747C157.722 147.464 158.166 148.36 158.331 149.325C158.496 150.29 158.376 151.282 157.985 152.18C157.594 153.078 156.949 153.842 156.13 154.378C155.311 154.914 154.353 155.2 153.374 155.199C151.997 155.148 150.697 154.553 149.758 153.546C148.819 152.538 148.318 151.199 148.364 149.822ZM151.179 149.822C151.208 150.251 151.361 150.662 151.62 151.004C151.879 151.347 152.233 151.606 152.638 151.751C153.042 151.895 153.48 151.918 153.898 151.816C154.315 151.714 154.693 151.493 154.987 151.179C155.28 150.865 155.475 150.472 155.548 150.049C155.621 149.626 155.568 149.19 155.397 148.796C155.225 148.403 154.942 148.067 154.583 147.832C154.224 147.597 153.803 147.472 153.374 147.473C152.771 147.494 152.202 147.753 151.791 148.194C151.379 148.634 151.159 149.22 151.179 149.822Z" fill="#F9F9F9"/>
<path d="M76.9375 40.1294V95.6084C76.9357 95.8594 76.9949 96.1071 77.11 96.3303C77.2251 96.5534 77.3927 96.7452 77.5984 96.8893L125.489 129.181C125.707 129.332 125.966 129.415 126.231 129.418C126.476 129.415 126.715 129.348 126.926 129.223C127.136 129.099 127.31 128.921 127.431 128.708C127.62 128.365 127.68 127.965 127.599 127.582C127.518 127.198 127.302 126.857 126.99 126.619L79.7604 94.8007V39.4196C79.7629 39.1997 79.7183 38.9818 79.6296 38.7806C79.541 38.5794 79.4103 38.3995 79.2464 38.2529" fill="#F9F9F9"/>
<path d="M153.374 107.324C153.566 107.318 153.755 107.274 153.929 107.194C154.104 107.115 154.262 107.002 154.393 106.862C154.524 106.722 154.626 106.557 154.693 106.378C154.761 106.198 154.792 106.007 154.786 105.815V34.3123C154.787 34.0965 154.744 33.8826 154.658 33.6846C154.573 33.4865 154.446 33.3084 154.288 33.1619L84.6061 -30.0188C84.4673 -30.1456 84.3035 -30.2421 84.1254 -30.3021C83.9472 -30.3622 83.7585 -30.3845 83.5712 -30.3676C83.3839 -30.3507 83.2022 -30.295 83.0377 -30.204C82.8731 -30.1131 82.7293 -29.9889 82.6154 -29.8393C82.3799 -29.5233 82.2667 -29.1329 82.2967 -28.74C82.3267 -28.347 82.4979 -27.9783 82.7786 -27.7017L151.963 35.0139V105.815C151.952 106.202 152.094 106.577 152.358 106.86C152.622 107.142 152.988 107.309 153.374 107.324Z" fill="#F9F9F9"/>
<path d="M463.585 62.7045C463.778 62.6982 463.967 62.6538 464.142 62.574C464.318 62.4942 464.475 62.3805 464.607 62.2395C464.738 62.0984 464.84 61.9328 464.907 61.7522C464.974 61.5715 465.004 61.3795 464.997 61.187V-9.63843L534.181 -72.3622C534.459 -72.6383 534.629 -73.0055 534.659 -73.3966C534.689 -73.7876 534.577 -74.1764 534.344 -74.4917C534.23 -74.6412 534.086 -74.7655 533.921 -74.8564C533.757 -74.9474 533.575 -75.003 533.388 -75.0199C533.201 -75.0368 533.012 -75.0145 532.834 -74.9545C532.656 -74.8944 532.492 -74.7979 532.353 -74.6711L462.671 -11.4986C462.513 -11.3499 462.388 -11.1703 462.302 -10.971C462.217 -10.7717 462.173 -10.557 462.174 -10.3401V61.1543C462.162 61.3494 462.189 61.5451 462.254 61.7295C462.319 61.9139 462.42 62.0835 462.551 62.228C462.683 62.3726 462.842 62.4893 463.02 62.5711C463.197 62.653 463.39 62.6983 463.585 62.7045Z" fill="#F9F9F9"/>
<path d="M236.338 78.7525C236.725 78.7376 237.09 78.5707 237.354 78.2881C237.619 78.0054 237.761 77.6299 237.75 77.2431V18.4355C237.763 18.0473 237.622 17.6697 237.357 17.3853C237.093 17.1009 236.726 16.9328 236.338 16.918H181.432V-26.9593C181.432 -27.1797 181.386 -27.3976 181.296 -27.5987C181.206 -27.7998 181.074 -27.9795 180.909 -28.126L134.479 -68.7644C134.338 -68.8894 134.173 -68.9836 133.993 -69.041C133.814 -69.0985 133.624 -69.1178 133.437 -69.0978C133.25 -69.0779 133.069 -69.0191 132.905 -68.9251C132.742 -68.8311 132.6 -68.7041 132.489 -68.5522C132.26 -68.2322 132.156 -67.8406 132.193 -67.4494C132.23 -67.0582 132.408 -66.6937 132.693 -66.4228L178.625 -26.2251V18.4518C178.618 18.6436 178.65 18.8348 178.717 19.0145C178.785 19.1942 178.887 19.3588 179.018 19.499C179.149 19.6392 179.306 19.7522 179.481 19.8315C179.656 19.9108 179.845 19.9548 180.036 19.9611H234.919V77.2595C234.912 77.6448 235.057 78.0174 235.323 78.2967C235.588 78.576 235.953 78.7397 236.338 78.7525Z" fill="#F9F9F9"/>
<path d="M137.579 129.418C137.771 129.411 137.961 129.367 138.136 129.287C138.311 129.207 138.469 129.094 138.6 128.953C138.732 128.812 138.834 128.646 138.9 128.465C138.967 128.285 138.998 128.093 138.99 127.9V73.4573C138.992 73.2022 138.931 72.9504 138.813 72.7242C138.695 72.4981 138.524 72.3044 138.313 72.1601L93.8493 43.2213C93.6902 43.1193 93.5118 43.0516 93.3252 43.0223C93.1386 42.9931 92.9479 43.0029 92.7653 43.0512C92.5827 43.0995 92.4122 43.1853 92.2645 43.3031C92.1168 43.4208 91.9953 43.568 91.9075 43.7353C91.7133 44.0774 91.6541 44.4798 91.7417 44.8633C91.8292 45.2468 92.0572 45.5837 92.3807 45.8076L136.2 74.3058V127.9C136.187 128.283 136.323 128.656 136.581 128.939C136.838 129.223 137.197 129.394 137.579 129.418Z" fill="#F9F9F9"/>
<path d="M29.9603 124.612H-19.1049V94.9388C-19.1045 94.6819 -19.1723 94.4296 -19.3013 94.2074C-19.4303 93.9852 -19.6159 93.8013 -19.8392 93.6743L-102.844 47.0475V-51.2645L-61.7495 -85.0822C-61.5834 -85.2208 -61.4498 -85.3942 -61.3582 -85.5902C-61.2666 -85.7861 -61.2191 -85.9999 -61.2192 -86.2162V-118.777C-61.218 -118.979 -61.2588 -119.179 -61.3388 -119.365C-61.4188 -119.55 -61.5364 -119.717 -61.6842 -119.854L-100.951 -156.087V-421.236C-100.951 -421.476 -101.013 -421.712 -101.131 -421.921H-103.578C-103.692 -421.71 -103.753 -421.475 -103.758 -421.236V-155.443C-103.757 -155.241 -103.716 -155.041 -103.636 -154.856C-103.556 -154.671 -103.439 -154.504 -103.293 -154.366L-64.0257 -118.133V-86.9097L-105.12 -53.092C-105.286 -52.9546 -105.419 -52.7826 -105.51 -52.588C-105.602 -52.3935 -105.65 -52.1812 -105.65 -51.9661V47.9041C-105.651 48.161 -105.583 48.4134 -105.454 48.6356C-105.325 48.8578 -105.139 49.0417 -104.916 49.1687L-21.9441 95.7955V126.056C-21.9473 126.244 -21.9133 126.431 -21.8441 126.606C-21.7748 126.781 -21.6716 126.941 -21.5404 127.076C-21.4092 127.211 -21.2527 127.318 -21.0798 127.393C-20.9068 127.467 -20.7209 127.506 -20.5327 127.508H29.944C30.3093 127.481 30.6507 127.316 30.8999 127.048C31.149 126.779 31.2874 126.426 31.2874 126.06C31.2874 125.694 31.149 125.341 30.8999 125.072C30.6507 124.804 30.3093 124.639 29.944 124.612H29.9603Z" fill="#F9F9F9"/>
<path d="M29.7242 130.96C30.6972 130.984 31.6554 130.718 32.4763 130.195C33.2972 129.672 33.9437 128.916 34.333 128.024C34.7223 127.132 34.8369 126.144 34.6621 125.187C34.4873 124.229 34.0309 123.346 33.3515 122.649C32.672 121.952 31.8002 121.473 30.8475 121.274C29.8948 121.075 28.9043 121.165 28.0027 121.531C27.1011 121.898 26.3292 122.525 25.7857 123.333C25.2423 124.14 24.9518 125.091 24.9515 126.065C24.9363 127.346 25.4303 128.582 26.3251 129.5C27.22 130.417 28.4425 130.943 29.7242 130.96Z" fill="#F9F9F9"/>
<path d="M9.69489 -121.56C9.91702 -121.559 10.1358 -121.505 10.3331 -121.403C10.5303 -121.301 10.7003 -121.153 10.8289 -120.972C11.0525 -120.663 11.1468 -120.279 11.092 -119.901C11.0372 -119.523 10.8374 -119.182 10.5352 -118.949L-88.9252 -43.2772V39.8025L-14.9112 80.653C-14.5788 80.8419 -14.3331 81.1529 -14.2265 81.5201C-14.1199 81.8873 -14.1606 82.2816 -14.3401 82.6192C-14.4251 82.7847 -14.5424 82.9317 -14.6851 83.0512C-14.8278 83.1707 -14.9929 83.2605 -15.1708 83.3153C-15.3487 83.37 -15.5358 83.3886 -15.721 83.3699C-15.9062 83.3513 -16.0858 83.2958 -16.2492 83.2066L-91.0056 41.9564C-91.2316 41.8298 -91.4197 41.645 -91.5502 41.4212C-91.6808 41.1974 -91.7491 40.9427 -91.748 40.6837V-44.0033C-91.7487 -44.2274 -91.6975 -44.4485 -91.5984 -44.6495C-91.4993 -44.8505 -91.3551 -45.0259 -91.177 -45.1618L8.85454 -121.274C9.09666 -121.457 9.39136 -121.557 9.69489 -121.56Z" fill="#F9F9F9"/>
<path d="M-16.2327 168.979C-15.9325 168.996 -15.646 169.111 -15.4169 169.305L56.7369 229.884C56.9091 230.029 57.0457 230.212 57.1362 230.419C57.2267 230.625 57.2687 230.85 57.2591 231.075L54.2731 295.137C54.2606 295.396 54.1783 295.648 54.0347 295.865C53.8911 296.082 53.6916 296.256 53.4572 296.369L-4.53344 324.81C-4.70165 324.892 -4.88459 324.939 -5.07143 324.949C-5.25827 324.958 -5.44519 324.93 -5.62102 324.867C-5.79685 324.803 -5.958 324.704 -6.09493 324.576C-6.23185 324.449 -6.34175 324.295 -6.41805 324.124C-6.57955 323.78 -6.59998 323.385 -6.47502 323.026C-6.35005 322.666 -6.08955 322.369 -5.74905 322.199L51.5073 294.133L54.4118 231.662L-17.1791 171.549C-17.4711 171.302 -17.6549 170.95 -17.6915 170.569C-17.7281 170.188 -17.6145 169.808 -17.3749 169.509C-17.239 169.338 -17.065 169.201 -16.8667 169.109C-16.6683 169.017 -16.4513 168.972 -16.2327 168.979Z" fill="#F9F9F9"/>
<path d="M-1.28704 56.0386C-0.624892 56.0389 0.0303054 56.1735 0.638914 56.4344C1.24752 56.6952 1.79691 57.0768 2.25379 57.5561C3.1983 58.5303 3.7265 59.8339 3.7265 61.1908C3.7265 62.5477 3.1983 63.8512 2.25379 64.8254C1.79552 65.3017 1.24551 65.6803 0.636972 65.9383C0.02843 66.1963 -0.626066 66.3284 -1.28704 66.3266C-1.9486 66.3273 -2.60342 66.194 -3.21199 65.9346C-3.82057 65.6751 -4.37024 65.2951 -4.82782 64.8173C-5.76665 63.8402 -6.29102 62.5377 -6.29102 61.1826C-6.29102 59.8275 -5.76665 58.525 -4.82782 57.5479C-4.37024 57.0701 -3.82057 56.69 -3.21199 56.4306C-2.60342 56.1712 -1.9486 56.0378 -1.28704 56.0386ZM-1.28704 63.4303C-0.998018 63.4315 -0.711712 63.3743 -0.44534 63.2621C-0.178967 63.15 0.0620012 62.9852 0.263105 62.7776C0.676785 62.3513 0.90816 61.7807 0.90816 61.1867C0.90816 60.5927 0.676785 60.022 0.263105 59.5957C0.0639343 59.3873 -0.175368 59.2213 -0.44036 59.1077C-0.705352 58.9942 -0.990569 58.9354 -1.27887 58.9349C-1.56826 58.9361 -1.85446 58.9952 -2.12067 59.1087C-2.38688 59.2222 -2.6277 59.3878 -2.82896 59.5957C-3.23885 60.0244 -3.46945 60.5936 -3.47352 61.1867C-3.47892 61.4877 -3.42474 61.7868 -3.31412 62.0669C-3.20351 62.3469 -3.03862 62.6023 -2.82896 62.8184C-2.62786 63.026 -2.38689 63.1908 -2.12052 63.303C-1.85415 63.4151 -1.56789 63.4723 -1.27887 63.4711L-1.28704 63.4303Z" fill="#F9F9F9"/>
<path d="M-51.8697 95.853C-51.4917 95.8595 -51.1316 96.0147 -50.8673 96.2851C-50.6031 96.5554 -50.4561 96.9191 -50.4583 97.2971V165.014L18.7177 225.062C19.0061 225.313 19.1853 225.666 19.2173 226.047C19.2492 226.428 19.1315 226.806 18.889 227.101C18.7717 227.246 18.6262 227.366 18.4615 227.454C18.2967 227.541 18.116 227.594 17.9301 227.61C17.7443 227.626 17.5571 227.605 17.3798 227.547C17.2026 227.489 17.0388 227.396 16.8984 227.273L-52.7835 166.842C-52.9407 166.704 -53.0665 166.535 -53.1523 166.345C-53.2382 166.155 -53.2822 165.949 -53.2812 165.74V97.2971C-53.2833 97.1096 -53.2485 96.9235 -53.1788 96.7495C-53.109 96.5754 -53.0056 96.4168 -52.8745 96.2827C-52.7435 96.1486 -52.5873 96.0416 -52.4149 95.9679C-52.2425 95.8942 -52.0572 95.8552 -51.8697 95.853Z" fill="#F9F9F9"/>
<path d="M543 102.894C540.259 102.894 538.04 105.529 538.04 108.776C538.04 112.023 540.259 114.658 543 114.658C545.742 114.658 547.953 112.023 547.953 108.776C547.953 105.529 545.758 102.894 543 102.894Z" fill="#F9F9F9"/>
<path d="M636.219 99.7935C636.481 99.8008 636.736 99.8811 636.955 100.025C637.174 100.169 637.348 100.372 637.459 100.609C637.669 101.001 637.738 101.453 637.655 101.889C637.571 102.326 637.341 102.721 637.002 103.008L587.969 139.6V203.237C587.972 203.485 587.926 203.73 587.834 203.96C587.741 204.19 587.604 204.399 587.431 204.575L493.412 296.948C493.273 297.091 493.103 297.201 492.914 297.268C492.726 297.335 492.525 297.359 492.326 297.336C492.127 297.313 491.937 297.245 491.768 297.136C491.6 297.028 491.459 296.883 491.356 296.711C491.105 296.342 490.987 295.898 491.023 295.453C491.058 295.008 491.245 294.588 491.552 294.264L585.032 202.389V138.637C585.026 138.356 585.084 138.077 585.203 137.822C585.322 137.568 585.498 137.344 585.718 137.168L635.484 100.063C635.696 99.9004 635.952 99.8066 636.219 99.7935Z" fill="#F9F9F9"/>
</g>
</svg>
